{"title":"Gogglebox Au - S04E04","uid":15897793,"size":1163705572,"categoryP":"video","categoryS":"tv_shows","magnet":"?xt=urn:btih:6b3ae178aeb887f14742107ceb91315403002ba6&amp;dn=Gogglebox+Au+-+S04E04&amp;tr=udp%3A%2F%2Ftracker.leechers-paradise.org%3A6969&amp;tr=udp%3A%2F%2Fzer0day.ch%3A1337&amp;tr=udp%3A%2F%2Fopen.demonii.com%3A1337&amp;tr=udp%3A%2F%2Ftracker.coppersurfer.tk%3A6969&amp;tr=udp%3A%2F%2Fexodus.desync.com%3A6969","seeders":7,"leechers":2,"uploader":"Bullrout","files":1,"time":1474977533,"description":"Gogglebox Au - S04E04\r\n\r\nThe Goggleboxers are on their couches discussing the week's best TV, including Australia's Next Top Model, Doctor Doctor, The Chase, The Bachelor Finale and the documentary Why are we Getting so Fat?\r\n\r\nComplete name : Gogglebox Au - S04E05.mkv\r\nFormat : Matroska\r\nFormat version : Version 4 / Version 2\r\nFile size : 1.08 GiB\r\nDuration : 47 min 4 s\r\nOverall bit rate mode : Variable\r\nOverall bit rate : 3 296 kb/s\r\nEncoded date : UTC 2016-09-26 02:58:32\r\nWriting application : mkvmerge v9.4.2 ('So High') 64bit\r\nWriting library : libebml v1.3.4 + libmatroska v1.4.5\r\n\r\nVideo\r\nID : 2\r\nFormat : AVC\r\nFormat/Info : Advanced Video Codec\r\nFormat profile :   \r\nFormat settings, CABAC : Yes\r\nFormat settings, ReFrames : 3 frames\r\nCodec ID : V_MPEG4/ISO/AVC\r\nDuration : 47 min 4 s\r\nBit rate mode : Variable\r\nBit rate : 2 910 kb/s\r\nMaximum bit rate : 3 000 kb/s\r\nWidth : 1 280 pixels\r\nHeight : 720 pixels\r\nDisplay aspect ratio : 16:9\r\nFrame rate mode : Constant\r\nFrame rate : 25.000 FPS\r\nStandard : PAL\r\nColor space : YUV\r\nChroma subsampling : 4:2:0\r\nBit depth : 8 bits\r\nScan type : Progressive\r\nBits/(Pixel*Frame) : 0.126\r\nStream size : 980 MiB (88%)\r\nWriting library : x264 core 112\r\nDefault : Yes\r\nForced : No\r\nColor range : Limited\r\nColor primaries : BT.709\r\nTransfer characteristics : BT.709\r\nMatrix coefficients : BT.709\r\n\r\nAudio\r\nID : 1\r\nFormat : AC-3\r\nFormat/Info : Audio Coding 3\r\nMode extension : CM (complete main)\r\nFormat settings, Endianness : Big\r\nCodec ID : A_AC3\r\nDuration : 47 min 4 s\r\nBit rate mode : Constant\r\nBit rate : 384 kb/s\r\nChannel(s) : 6 channels\r\nChannel positions : Front: L C R, Side: L R, LFE\r\nSampling rate : 48.0 kHz\r\nFrame rate : 31.250 FPS (1536 spf)\r\nCompression mode : Lossy\r\nStream size : 129 MiB (12%)\r\nDefault : Yes\r\nForced : No","torrent":{"xt":"urn:btih:6b3ae178aeb887f14742107ceb91315403002ba6","amp;dn":"Gogglebox+Au+-+S04E04","amp;tr":["udp%3A%2F%2Ftracker.leechers-paradise.org%3A6969","udp%3A%2F%2Fzer0day.ch%3A1337","udp%3A%2F%2Fopen.demonii.com%3A1337","udp%3A%2F%2Ftracker.coppersurfer.tk%3A6969","udp%3A%2F%2Fexodus.desync.com%3A6969"],"infoHash":"6b3ae178aeb887f14742107ceb91315403002ba6","infoHashBuffer":{"type":"Buffer","data":[107,58,225,120,174,184,135,241,71,66,16,124,235,145,49,84,3,0,43,166]},"announce":[],"urlList":[]}}